<mxfile host="app.diagrams.net" modified="2023-07-18T16:05:35.426Z" agent="Mozilla/5.0 (Macintosh; Intel Mac OS X 10_15_7) AppleWebKit/605.1.15 (KHTML, like Gecko) Version/16.3 Safari/605.1.15" etag="N2rsq73xbJ9BOfQ0yLGf" version="21.6.2" type="github" pages="10">
  <diagram name="Блоки" id="BRWx41nCOoNxvBwfdLrf">
    <mxGraphModel dx="1194" dy="647" grid="1" gridSize="10" guides="1" tooltips="1" connect="1" arrows="1" fold="1" page="1" pageScale="1" pageWidth="827" pageHeight="1169" math="0" shadow="0">
      <root>
        <mxCell id="0" />
        <mxCell id="1" parent="0" />
        <mxCell id="q9tsyO1Qn7inbTAcGibk-1" value="&lt;font style=&quot;font-size: 25px;&quot;&gt;exit&lt;/font&gt;" style="ellipse;whiteSpace=wrap;html=1;" parent="1" vertex="1">
          <mxGeometry x="810" y="200" width="120" height="80" as="geometry" />
        </mxCell>
        <mxCell id="q9tsyO1Qn7inbTAcGibk-5" value="" style="edgeStyle=orthogonalEdgeStyle;rounded=0;orthogonalLoop=1;jettySize=auto;html=1;" parent="1" source="q9tsyO1Qn7inbTAcGibk-2" target="q9tsyO1Qn7inbTAcGibk-4" edge="1">
          <mxGeometry relative="1" as="geometry" />
        </mxCell>
        <mxCell id="q9tsyO1Qn7inbTAcGibk-2" value="&lt;font style=&quot;font-size: 25px;&quot;&gt;start&lt;/font&gt;" style="ellipse;whiteSpace=wrap;html=1;" parent="1" vertex="1">
          <mxGeometry x="380" y="600" width="120" height="80" as="geometry" />
        </mxCell>
        <mxCell id="q9tsyO1Qn7inbTAcGibk-7" value="" style="edgeStyle=orthogonalEdgeStyle;rounded=0;orthogonalLoop=1;jettySize=auto;html=1;" parent="1" source="q9tsyO1Qn7inbTAcGibk-3" edge="1">
          <mxGeometry relative="1" as="geometry">
            <mxPoint x="440" y="410" as="targetPoint" />
          </mxGeometry>
        </mxCell>
        <mxCell id="q9tsyO1Qn7inbTAcGibk-3" value="Данные от пользователя&amp;nbsp;" style="shape=parallelogram;perimeter=parallelogramPerimeter;whiteSpace=wrap;html=1;fixedSize=1;" parent="1" vertex="1">
          <mxGeometry x="320" y="470" width="240" height="60" as="geometry" />
        </mxCell>
        <mxCell id="q9tsyO1Qn7inbTAcGibk-4" value="" style="shape=waypoint;sketch=0;size=6;pointerEvents=1;points=[];fillColor=default;resizable=0;rotatable=0;perimeter=centerPerimeter;snapToPoint=1;" parent="1" vertex="1">
          <mxGeometry x="430" y="530" width="20" height="20" as="geometry" />
        </mxCell>
        <mxCell id="q9tsyO1Qn7inbTAcGibk-9" value="" style="edgeStyle=orthogonalEdgeStyle;rounded=0;orthogonalLoop=1;jettySize=auto;html=1;" parent="1" source="q9tsyO1Qn7inbTAcGibk-6" target="q9tsyO1Qn7inbTAcGibk-8" edge="1">
          <mxGeometry relative="1" as="geometry" />
        </mxCell>
        <mxCell id="q9tsyO1Qn7inbTAcGibk-6" value="Блок действия(задаем переменные)" style="rounded=0;whiteSpace=wrap;html=1;" parent="1" vertex="1">
          <mxGeometry x="340" y="340" width="200" height="60" as="geometry" />
        </mxCell>
        <mxCell id="q9tsyO1Qn7inbTAcGibk-10" style="edgeStyle=orthogonalEdgeStyle;rounded=0;orthogonalLoop=1;jettySize=auto;html=1;" parent="1" source="q9tsyO1Qn7inbTAcGibk-8" edge="1">
          <mxGeometry relative="1" as="geometry">
            <mxPoint x="440" y="140" as="targetPoint" />
          </mxGeometry>
        </mxCell>
        <mxCell id="q9tsyO1Qn7inbTAcGibk-11" value="да" style="edgeLabel;html=1;align=center;verticalAlign=middle;resizable=0;points=[];" parent="q9tsyO1Qn7inbTAcGibk-10" vertex="1" connectable="0">
          <mxGeometry x="-0.1075" y="2" relative="1" as="geometry">
            <mxPoint as="offset" />
          </mxGeometry>
        </mxCell>
        <mxCell id="q9tsyO1Qn7inbTAcGibk-13" value="Нет" style="edgeStyle=orthogonalEdgeStyle;rounded=0;orthogonalLoop=1;jettySize=auto;html=1;" parent="1" source="q9tsyO1Qn7inbTAcGibk-8" target="q9tsyO1Qn7inbTAcGibk-14" edge="1">
          <mxGeometry relative="1" as="geometry">
            <mxPoint x="600" y="240" as="targetPoint" />
          </mxGeometry>
        </mxCell>
        <mxCell id="q9tsyO1Qn7inbTAcGibk-8" value="Вопрос" style="rhombus;whiteSpace=wrap;html=1;" parent="1" vertex="1">
          <mxGeometry x="340" y="200" width="200" height="80" as="geometry" />
        </mxCell>
        <mxCell id="q9tsyO1Qn7inbTAcGibk-15" style="edgeStyle=orthogonalEdgeStyle;rounded=0;orthogonalLoop=1;jettySize=auto;html=1;entryX=0;entryY=0.5;entryDx=0;entryDy=0;" parent="1" source="q9tsyO1Qn7inbTAcGibk-12" target="q9tsyO1Qn7inbTAcGibk-8" edge="1">
          <mxGeometry relative="1" as="geometry">
            <Array as="points">
              <mxPoint x="320" y="110" />
              <mxPoint x="320" y="240" />
            </Array>
          </mxGeometry>
        </mxCell>
        <mxCell id="q9tsyO1Qn7inbTAcGibk-12" value="Действие" style="rounded=0;whiteSpace=wrap;html=1;" parent="1" vertex="1">
          <mxGeometry x="380" y="70" width="120" height="60" as="geometry" />
        </mxCell>
        <mxCell id="q9tsyO1Qn7inbTAcGibk-16" style="edgeStyle=orthogonalEdgeStyle;rounded=0;orthogonalLoop=1;jettySize=auto;html=1;" parent="1" source="q9tsyO1Qn7inbTAcGibk-14" edge="1">
          <mxGeometry relative="1" as="geometry">
            <mxPoint x="790" y="240" as="targetPoint" />
          </mxGeometry>
        </mxCell>
        <mxCell id="q9tsyO1Qn7inbTAcGibk-14" value="Вывод" style="shape=document;whiteSpace=wrap;html=1;boundedLbl=1;" parent="1" vertex="1">
          <mxGeometry x="620" y="200" width="120" height="80" as="geometry" />
        </mxCell>
      </root>
    </mxGraphModel>
  </diagram>
  <diagram id="kqx6tfn9G1Vl--dHTKAL" name="Задача 1">
    <mxGraphModel dx="1194" dy="647" grid="1" gridSize="10" guides="1" tooltips="1" connect="1" arrows="1" fold="1" page="1" pageScale="1" pageWidth="827" pageHeight="1169" math="0" shadow="0">
      <root>
        <mxCell id="0" />
        <mxCell id="1" parent="0" />
        <mxCell id="1SuBdmU2R_ucciv9CJnJ-1" value="Найти максимум из двух чисел&amp;nbsp;" style="rounded=0;whiteSpace=wrap;html=1;" parent="1" vertex="1">
          <mxGeometry x="50" y="50" width="130" height="70" as="geometry" />
        </mxCell>
        <mxCell id="VmiTGmd7TG1Pf0D39vWt-2" style="edgeStyle=orthogonalEdgeStyle;rounded=0;orthogonalLoop=1;jettySize=auto;html=1;entryX=0.5;entryY=0;entryDx=0;entryDy=0;" parent="1" source="1SuBdmU2R_ucciv9CJnJ-2" target="VmiTGmd7TG1Pf0D39vWt-1" edge="1">
          <mxGeometry relative="1" as="geometry" />
        </mxCell>
        <mxCell id="1SuBdmU2R_ucciv9CJnJ-2" value="start&amp;nbsp;" style="ellipse;whiteSpace=wrap;html=1;" parent="1" vertex="1">
          <mxGeometry x="290" y="45" width="120" height="80" as="geometry" />
        </mxCell>
        <mxCell id="Vw0TBYW53g82V1VGVWZo-1" style="edgeStyle=orthogonalEdgeStyle;rounded=0;orthogonalLoop=1;jettySize=auto;html=1;" parent="1" source="VmiTGmd7TG1Pf0D39vWt-1" target="Vw0TBYW53g82V1VGVWZo-2" edge="1">
          <mxGeometry relative="1" as="geometry">
            <mxPoint x="350" y="300" as="targetPoint" />
          </mxGeometry>
        </mxCell>
        <mxCell id="VmiTGmd7TG1Pf0D39vWt-1" value="a, b" style="shape=parallelogram;perimeter=parallelogramPerimeter;whiteSpace=wrap;html=1;fixedSize=1;" parent="1" vertex="1">
          <mxGeometry x="270" y="180" width="160" height="60" as="geometry" />
        </mxCell>
        <mxCell id="CbwxwxVuJOAIHa1N0rbx-2" style="edgeStyle=orthogonalEdgeStyle;rounded=0;orthogonalLoop=1;jettySize=auto;html=1;" parent="1" source="Vw0TBYW53g82V1VGVWZo-2" target="CbwxwxVuJOAIHa1N0rbx-1" edge="1">
          <mxGeometry relative="1" as="geometry" />
        </mxCell>
        <mxCell id="Vw0TBYW53g82V1VGVWZo-2" value="max= 0" style="rounded=0;whiteSpace=wrap;html=1;" parent="1" vertex="1">
          <mxGeometry x="290" y="280" width="120" height="60" as="geometry" />
        </mxCell>
        <mxCell id="CbwxwxVuJOAIHa1N0rbx-4" value="no" style="edgeStyle=orthogonalEdgeStyle;rounded=0;orthogonalLoop=1;jettySize=auto;html=1;" parent="1" source="CbwxwxVuJOAIHa1N0rbx-1" target="CbwxwxVuJOAIHa1N0rbx-5" edge="1">
          <mxGeometry relative="1" as="geometry">
            <mxPoint x="350" y="530" as="targetPoint" />
          </mxGeometry>
        </mxCell>
        <mxCell id="CbwxwxVuJOAIHa1N0rbx-6" value="yes" style="edgeStyle=orthogonalEdgeStyle;rounded=0;orthogonalLoop=1;jettySize=auto;html=1;" parent="1" source="CbwxwxVuJOAIHa1N0rbx-1" target="CbwxwxVuJOAIHa1N0rbx-7" edge="1">
          <mxGeometry relative="1" as="geometry">
            <mxPoint x="220" y="440" as="targetPoint" />
          </mxGeometry>
        </mxCell>
        <mxCell id="CbwxwxVuJOAIHa1N0rbx-1" value="a &amp;gt; b" style="rhombus;whiteSpace=wrap;html=1;" parent="1" vertex="1">
          <mxGeometry x="280" y="400" width="140" height="80" as="geometry" />
        </mxCell>
        <mxCell id="CbwxwxVuJOAIHa1N0rbx-10" style="edgeStyle=orthogonalEdgeStyle;rounded=0;orthogonalLoop=1;jettySize=auto;html=1;" parent="1" source="CbwxwxVuJOAIHa1N0rbx-5" target="CbwxwxVuJOAIHa1N0rbx-8" edge="1">
          <mxGeometry relative="1" as="geometry">
            <Array as="points">
              <mxPoint x="560" y="500" />
              <mxPoint x="350" y="500" />
            </Array>
          </mxGeometry>
        </mxCell>
        <mxCell id="CbwxwxVuJOAIHa1N0rbx-5" value="max = b" style="rounded=0;whiteSpace=wrap;html=1;" parent="1" vertex="1">
          <mxGeometry x="500" y="410" width="120" height="60" as="geometry" />
        </mxCell>
        <mxCell id="CbwxwxVuJOAIHa1N0rbx-9" style="edgeStyle=orthogonalEdgeStyle;rounded=0;orthogonalLoop=1;jettySize=auto;html=1;" parent="1" source="CbwxwxVuJOAIHa1N0rbx-7" target="CbwxwxVuJOAIHa1N0rbx-8" edge="1">
          <mxGeometry relative="1" as="geometry">
            <Array as="points">
              <mxPoint x="140" y="500" />
              <mxPoint x="350" y="500" />
            </Array>
          </mxGeometry>
        </mxCell>
        <mxCell id="CbwxwxVuJOAIHa1N0rbx-7" value="max = a" style="rounded=0;whiteSpace=wrap;html=1;" parent="1" vertex="1">
          <mxGeometry x="80" y="410" width="120" height="60" as="geometry" />
        </mxCell>
        <mxCell id="CbwxwxVuJOAIHa1N0rbx-11" style="edgeStyle=orthogonalEdgeStyle;rounded=0;orthogonalLoop=1;jettySize=auto;html=1;" parent="1" source="CbwxwxVuJOAIHa1N0rbx-8" target="CbwxwxVuJOAIHa1N0rbx-12" edge="1">
          <mxGeometry relative="1" as="geometry">
            <mxPoint x="350" y="700" as="targetPoint" />
          </mxGeometry>
        </mxCell>
        <mxCell id="CbwxwxVuJOAIHa1N0rbx-8" value="max" style="shape=document;whiteSpace=wrap;html=1;boundedLbl=1;" parent="1" vertex="1">
          <mxGeometry x="290" y="550" width="120" height="80" as="geometry" />
        </mxCell>
        <mxCell id="CbwxwxVuJOAIHa1N0rbx-12" value="exit" style="ellipse;whiteSpace=wrap;html=1;" parent="1" vertex="1">
          <mxGeometry x="290" y="660" width="120" height="80" as="geometry" />
        </mxCell>
      </root>
    </mxGraphModel>
  </diagram>
  <diagram id="WmTp68d3L0h-Suzi_-lY" name="Страница 3">
    <mxGraphModel dx="1194" dy="647" grid="1" gridSize="10" guides="1" tooltips="1" connect="1" arrows="1" fold="1" page="1" pageScale="1" pageWidth="827" pageHeight="1169" math="0" shadow="0">
      <root>
        <mxCell id="0" />
        <mxCell id="1" parent="0" />
        <mxCell id="2MBf1_vOcD-0DpyYLQW5-1" value="&lt;div&gt;Составить блок-схему нахождения&amp;nbsp;&lt;/div&gt;&lt;div&gt;минимального из из 4-х чисел.&lt;/div&gt;" style="rounded=0;whiteSpace=wrap;html=1;" parent="1" vertex="1">
          <mxGeometry x="20" y="30" width="170" height="70" as="geometry" />
        </mxCell>
        <mxCell id="WILX5V8mpjNtNMy3mZo_-2" style="edgeStyle=orthogonalEdgeStyle;rounded=0;orthogonalLoop=1;jettySize=auto;html=1;entryX=0.5;entryY=0;entryDx=0;entryDy=0;" parent="1" source="fLh78G9r6wAxHvU3zU75-1" target="WILX5V8mpjNtNMy3mZo_-1" edge="1">
          <mxGeometry relative="1" as="geometry" />
        </mxCell>
        <mxCell id="fLh78G9r6wAxHvU3zU75-1" value="Start" style="ellipse;whiteSpace=wrap;html=1;" parent="1" vertex="1">
          <mxGeometry x="270" y="70" width="120" height="80" as="geometry" />
        </mxCell>
        <mxCell id="9l9JyN6lulUg3EUzfYcu-2" style="edgeStyle=orthogonalEdgeStyle;rounded=0;orthogonalLoop=1;jettySize=auto;html=1;exitX=0.5;exitY=1;exitDx=0;exitDy=0;entryX=0.5;entryY=0;entryDx=0;entryDy=0;" parent="1" source="WILX5V8mpjNtNMy3mZo_-1" target="9l9JyN6lulUg3EUzfYcu-1" edge="1">
          <mxGeometry relative="1" as="geometry" />
        </mxCell>
        <mxCell id="WILX5V8mpjNtNMy3mZo_-1" value="a, b, c, &amp;nbsp;d" style="shape=parallelogram;perimeter=parallelogramPerimeter;whiteSpace=wrap;html=1;fixedSize=1;" parent="1" vertex="1">
          <mxGeometry x="250" y="200" width="160" height="60" as="geometry" />
        </mxCell>
        <mxCell id="EQ9efddpQVAYbXfcKXcj-22" value="" style="edgeStyle=orthogonalEdgeStyle;rounded=0;orthogonalLoop=1;jettySize=auto;html=1;" parent="1" source="9l9JyN6lulUg3EUzfYcu-1" target="EQ9efddpQVAYbXfcKXcj-21" edge="1">
          <mxGeometry relative="1" as="geometry" />
        </mxCell>
        <mxCell id="9l9JyN6lulUg3EUzfYcu-1" value="min= a" style="rounded=0;whiteSpace=wrap;html=1;" parent="1" vertex="1">
          <mxGeometry x="270" y="310" width="120" height="60" as="geometry" />
        </mxCell>
        <mxCell id="EQ9efddpQVAYbXfcKXcj-23" value="yes" style="edgeStyle=orthogonalEdgeStyle;rounded=0;orthogonalLoop=1;jettySize=auto;html=1;" parent="1" source="EQ9efddpQVAYbXfcKXcj-21" target="EQ9efddpQVAYbXfcKXcj-24" edge="1">
          <mxGeometry relative="1" as="geometry">
            <mxPoint x="500" y="475" as="targetPoint" />
          </mxGeometry>
        </mxCell>
        <mxCell id="EQ9efddpQVAYbXfcKXcj-26" value="no" style="edgeStyle=orthogonalEdgeStyle;rounded=0;orthogonalLoop=1;jettySize=auto;html=1;" parent="1" source="EQ9efddpQVAYbXfcKXcj-21" target="EQ9efddpQVAYbXfcKXcj-25" edge="1">
          <mxGeometry relative="1" as="geometry" />
        </mxCell>
        <mxCell id="EQ9efddpQVAYbXfcKXcj-21" value="min &amp;gt; b" style="rhombus;whiteSpace=wrap;html=1;rounded=0;" parent="1" vertex="1">
          <mxGeometry x="270" y="440" width="120" height="70" as="geometry" />
        </mxCell>
        <mxCell id="EQ9efddpQVAYbXfcKXcj-29" style="edgeStyle=orthogonalEdgeStyle;rounded=0;orthogonalLoop=1;jettySize=auto;html=1;entryX=0.5;entryY=0;entryDx=0;entryDy=0;" parent="1" source="EQ9efddpQVAYbXfcKXcj-24" target="EQ9efddpQVAYbXfcKXcj-28" edge="1">
          <mxGeometry relative="1" as="geometry" />
        </mxCell>
        <mxCell id="EQ9efddpQVAYbXfcKXcj-24" value="min = b" style="rounded=0;whiteSpace=wrap;html=1;" parent="1" vertex="1">
          <mxGeometry x="440" y="445" width="120" height="60" as="geometry" />
        </mxCell>
        <mxCell id="EQ9efddpQVAYbXfcKXcj-27" style="edgeStyle=orthogonalEdgeStyle;rounded=0;orthogonalLoop=1;jettySize=auto;html=1;" parent="1" source="EQ9efddpQVAYbXfcKXcj-25" target="EQ9efddpQVAYbXfcKXcj-28" edge="1">
          <mxGeometry relative="1" as="geometry">
            <mxPoint x="470" y="625" as="targetPoint" />
          </mxGeometry>
        </mxCell>
        <mxCell id="EQ9efddpQVAYbXfcKXcj-25" value="min = a" style="whiteSpace=wrap;html=1;rounded=0;" parent="1" vertex="1">
          <mxGeometry x="270" y="595" width="120" height="60" as="geometry" />
        </mxCell>
        <mxCell id="EQ9efddpQVAYbXfcKXcj-31" value="yes" style="edgeStyle=orthogonalEdgeStyle;rounded=0;orthogonalLoop=1;jettySize=auto;html=1;" parent="1" source="EQ9efddpQVAYbXfcKXcj-28" target="EQ9efddpQVAYbXfcKXcj-30" edge="1">
          <mxGeometry relative="1" as="geometry" />
        </mxCell>
        <mxCell id="EQ9efddpQVAYbXfcKXcj-33" value="no" style="edgeStyle=orthogonalEdgeStyle;rounded=0;orthogonalLoop=1;jettySize=auto;html=1;" parent="1" source="EQ9efddpQVAYbXfcKXcj-28" target="EQ9efddpQVAYbXfcKXcj-32" edge="1">
          <mxGeometry relative="1" as="geometry" />
        </mxCell>
        <mxCell id="EQ9efddpQVAYbXfcKXcj-28" value="min &amp;gt; c" style="rhombus;whiteSpace=wrap;html=1;" parent="1" vertex="1">
          <mxGeometry x="460" y="585" width="80" height="80" as="geometry" />
        </mxCell>
        <mxCell id="EQ9efddpQVAYbXfcKXcj-36" style="edgeStyle=orthogonalEdgeStyle;rounded=0;orthogonalLoop=1;jettySize=auto;html=1;entryX=0.5;entryY=0;entryDx=0;entryDy=0;" parent="1" source="EQ9efddpQVAYbXfcKXcj-30" target="EQ9efddpQVAYbXfcKXcj-34" edge="1">
          <mxGeometry relative="1" as="geometry" />
        </mxCell>
        <mxCell id="EQ9efddpQVAYbXfcKXcj-30" value="min = &amp;nbsp;c" style="whiteSpace=wrap;html=1;" parent="1" vertex="1">
          <mxGeometry x="610" y="595" width="120" height="60" as="geometry" />
        </mxCell>
        <mxCell id="EQ9efddpQVAYbXfcKXcj-35" value="" style="edgeStyle=orthogonalEdgeStyle;rounded=0;orthogonalLoop=1;jettySize=auto;html=1;" parent="1" source="EQ9efddpQVAYbXfcKXcj-32" target="EQ9efddpQVAYbXfcKXcj-34" edge="1">
          <mxGeometry relative="1" as="geometry" />
        </mxCell>
        <mxCell id="EQ9efddpQVAYbXfcKXcj-32" value="min = a" style="whiteSpace=wrap;html=1;" parent="1" vertex="1">
          <mxGeometry x="440" y="755" width="120" height="60" as="geometry" />
        </mxCell>
        <mxCell id="EQ9efddpQVAYbXfcKXcj-38" value="yes" style="edgeStyle=orthogonalEdgeStyle;rounded=0;orthogonalLoop=1;jettySize=auto;html=1;" parent="1" source="EQ9efddpQVAYbXfcKXcj-34" target="EQ9efddpQVAYbXfcKXcj-37" edge="1">
          <mxGeometry relative="1" as="geometry" />
        </mxCell>
        <mxCell id="EQ9efddpQVAYbXfcKXcj-40" value="no" style="edgeStyle=orthogonalEdgeStyle;rounded=0;orthogonalLoop=1;jettySize=auto;html=1;" parent="1" source="EQ9efddpQVAYbXfcKXcj-34" target="EQ9efddpQVAYbXfcKXcj-39" edge="1">
          <mxGeometry relative="1" as="geometry" />
        </mxCell>
        <mxCell id="EQ9efddpQVAYbXfcKXcj-34" value="min &amp;gt; d" style="rhombus;whiteSpace=wrap;html=1;" parent="1" vertex="1">
          <mxGeometry x="630" y="745" width="80" height="80" as="geometry" />
        </mxCell>
        <mxCell id="jonlnlP8CbWND03pYfhy-2" style="edgeStyle=orthogonalEdgeStyle;rounded=0;orthogonalLoop=1;jettySize=auto;html=1;entryX=0.5;entryY=0;entryDx=0;entryDy=0;" parent="1" source="EQ9efddpQVAYbXfcKXcj-37" target="jonlnlP8CbWND03pYfhy-1" edge="1">
          <mxGeometry relative="1" as="geometry" />
        </mxCell>
        <mxCell id="EQ9efddpQVAYbXfcKXcj-37" value="min = d" style="whiteSpace=wrap;html=1;" parent="1" vertex="1">
          <mxGeometry x="810" y="755" width="120" height="60" as="geometry" />
        </mxCell>
        <mxCell id="jonlnlP8CbWND03pYfhy-3" style="edgeStyle=orthogonalEdgeStyle;rounded=0;orthogonalLoop=1;jettySize=auto;html=1;entryX=0;entryY=0.5;entryDx=0;entryDy=0;" parent="1" source="EQ9efddpQVAYbXfcKXcj-39" target="jonlnlP8CbWND03pYfhy-1" edge="1">
          <mxGeometry relative="1" as="geometry" />
        </mxCell>
        <mxCell id="EQ9efddpQVAYbXfcKXcj-39" value="min &amp;nbsp;= a" style="whiteSpace=wrap;html=1;" parent="1" vertex="1">
          <mxGeometry x="610" y="915" width="120" height="60" as="geometry" />
        </mxCell>
        <mxCell id="JixazCBW1N7ncqjANZeJ-2" value="" style="edgeStyle=orthogonalEdgeStyle;rounded=0;orthogonalLoop=1;jettySize=auto;html=1;" parent="1" source="jonlnlP8CbWND03pYfhy-1" target="JixazCBW1N7ncqjANZeJ-1" edge="1">
          <mxGeometry relative="1" as="geometry" />
        </mxCell>
        <mxCell id="jonlnlP8CbWND03pYfhy-1" value="min" style="shape=document;whiteSpace=wrap;html=1;boundedLbl=1;" parent="1" vertex="1">
          <mxGeometry x="810" y="905" width="120" height="80" as="geometry" />
        </mxCell>
        <mxCell id="JixazCBW1N7ncqjANZeJ-1" value="exit" style="ellipse;whiteSpace=wrap;html=1;" parent="1" vertex="1">
          <mxGeometry x="810" y="1065" width="120" height="80" as="geometry" />
        </mxCell>
      </root>
    </mxGraphModel>
  </diagram>
  <diagram id="zcc3Kikx6NsXvgpa6-Yy" name="Страница 4">
    <mxGraphModel dx="1194" dy="647" grid="1" gridSize="10" guides="1" tooltips="1" connect="1" arrows="1" fold="1" page="1" pageScale="1" pageWidth="827" pageHeight="1169" math="0" shadow="0">
      <root>
        <mxCell id="0" />
        <mxCell id="1" parent="0" />
        <mxCell id="13n9ubacQEf9AR1SQZ6--1" value="Составить блок-схему нахождения суммы &#xa;всех чётных чисел от 1 до 15." style="rounded=0;whiteSpace=wrap;html=1;" parent="1" vertex="1">
          <mxGeometry x="30" y="40" width="180" height="90" as="geometry" />
        </mxCell>
        <mxCell id="TrDH9iGvCsf7Y9Ny4SRK-2" style="edgeStyle=orthogonalEdgeStyle;rounded=0;orthogonalLoop=1;jettySize=auto;html=1;entryX=0.5;entryY=0;entryDx=0;entryDy=0;" parent="1" source="13n9ubacQEf9AR1SQZ6--2" target="TrDH9iGvCsf7Y9Ny4SRK-1" edge="1">
          <mxGeometry relative="1" as="geometry" />
        </mxCell>
        <mxCell id="13n9ubacQEf9AR1SQZ6--2" value="start" style="ellipse;whiteSpace=wrap;html=1;" parent="1" vertex="1">
          <mxGeometry x="310" y="180" width="120" height="80" as="geometry" />
        </mxCell>
        <mxCell id="TrDH9iGvCsf7Y9Ny4SRK-4" value="" style="edgeStyle=orthogonalEdgeStyle;rounded=0;orthogonalLoop=1;jettySize=auto;html=1;" parent="1" source="TrDH9iGvCsf7Y9Ny4SRK-1" target="TrDH9iGvCsf7Y9Ny4SRK-3" edge="1">
          <mxGeometry relative="1" as="geometry" />
        </mxCell>
        <mxCell id="TrDH9iGvCsf7Y9Ny4SRK-1" value="n = 2&lt;br&gt;sum = 0&amp;nbsp;" style="shape=parallelogram;perimeter=parallelogramPerimeter;whiteSpace=wrap;html=1;fixedSize=1;" parent="1" vertex="1">
          <mxGeometry x="310" y="320" width="120" height="60" as="geometry" />
        </mxCell>
        <mxCell id="TrDH9iGvCsf7Y9Ny4SRK-6" value="no" style="edgeStyle=orthogonalEdgeStyle;rounded=0;orthogonalLoop=1;jettySize=auto;html=1;" parent="1" source="TrDH9iGvCsf7Y9Ny4SRK-3" edge="1">
          <mxGeometry relative="1" as="geometry">
            <mxPoint x="470" y="490" as="targetPoint" />
          </mxGeometry>
        </mxCell>
        <mxCell id="uQKrECKXk9QxYK-aTa1y-2" value="yes" style="edgeStyle=orthogonalEdgeStyle;rounded=0;orthogonalLoop=1;jettySize=auto;html=1;entryX=1;entryY=0.5;entryDx=0;entryDy=0;" parent="1" source="TrDH9iGvCsf7Y9Ny4SRK-3" target="TrDH9iGvCsf7Y9Ny4SRK-11" edge="1">
          <mxGeometry relative="1" as="geometry" />
        </mxCell>
        <mxCell id="TrDH9iGvCsf7Y9Ny4SRK-3" value="sum &amp;lt; 15&amp;nbsp;" style="rhombus;whiteSpace=wrap;html=1;" parent="1" vertex="1">
          <mxGeometry x="330" y="450" width="80" height="80" as="geometry" />
        </mxCell>
        <mxCell id="Yu5D43OWZLYSCWXnezmj-1" style="edgeStyle=orthogonalEdgeStyle;rounded=0;orthogonalLoop=1;jettySize=auto;html=1;entryX=0;entryY=0.5;entryDx=0;entryDy=0;" parent="1" source="TrDH9iGvCsf7Y9Ny4SRK-11" target="TrDH9iGvCsf7Y9Ny4SRK-3" edge="1">
          <mxGeometry relative="1" as="geometry" />
        </mxCell>
        <mxCell id="TrDH9iGvCsf7Y9Ny4SRK-11" value="&lt;span style=&quot;caret-color: rgb(0, 0, 0); color: rgb(0, 0, 0); font-family: Helvetica; font-size: 12px; font-style: normal; font-variant-caps: normal; font-weight: 400; letter-spacing: normal; text-align: center; text-indent: 0px; text-transform: none; word-spacing: 0px; -webkit-text-stroke-width: 0px; background-color: rgb(251, 251, 251); text-decoration: none; float: none; display: inline !important;&quot;&gt;sum = sum + n&lt;br&gt;&lt;br&gt;&lt;/span&gt;" style="whiteSpace=wrap;html=1;" parent="1" vertex="1">
          <mxGeometry x="230" y="570" width="120" height="60" as="geometry" />
        </mxCell>
        <mxCell id="Yu5D43OWZLYSCWXnezmj-3" value="" style="edgeStyle=orthogonalEdgeStyle;rounded=0;orthogonalLoop=1;jettySize=auto;html=1;" parent="1" source="O17Eoz-7NCvejppz2HlO-2" target="Yu5D43OWZLYSCWXnezmj-2" edge="1">
          <mxGeometry relative="1" as="geometry" />
        </mxCell>
        <mxCell id="O17Eoz-7NCvejppz2HlO-2" value="sum" style="shape=document;whiteSpace=wrap;html=1;boundedLbl=1;" parent="1" vertex="1">
          <mxGeometry x="471" y="460" width="120" height="80" as="geometry" />
        </mxCell>
        <mxCell id="Yu5D43OWZLYSCWXnezmj-2" value="exit" style="ellipse;whiteSpace=wrap;html=1;" parent="1" vertex="1">
          <mxGeometry x="460" y="620" width="140" height="80" as="geometry" />
        </mxCell>
      </root>
    </mxGraphModel>
  </diagram>
  <diagram id="grgG2UeUf4k-9Vd0aiJf" name="дз 1">
    <mxGraphModel dx="1194" dy="681" grid="1" gridSize="10" guides="1" tooltips="1" connect="1" arrows="1" fold="1" page="1" pageScale="1" pageWidth="827" pageHeight="1169" math="0" shadow="0">
      <root>
        <mxCell id="0" />
        <mxCell id="1" parent="0" />
        <mxCell id="GsbMImEmcZZuZlUgUzdZ-2" style="edgeStyle=orthogonalEdgeStyle;rounded=0;orthogonalLoop=1;jettySize=auto;html=1;entryX=0.5;entryY=0;entryDx=0;entryDy=0;" edge="1" parent="1" source="lTNhgIQcS61Hxex98U5l-1" target="GsbMImEmcZZuZlUgUzdZ-1">
          <mxGeometry relative="1" as="geometry" />
        </mxCell>
        <mxCell id="lTNhgIQcS61Hxex98U5l-1" value="Start" style="ellipse;whiteSpace=wrap;html=1;" vertex="1" parent="1">
          <mxGeometry x="340" y="20" width="120" height="80" as="geometry" />
        </mxCell>
        <mxCell id="E4plYWqVsdsbXwTFyu5T-2" value="" style="edgeStyle=orthogonalEdgeStyle;rounded=0;orthogonalLoop=1;jettySize=auto;html=1;" edge="1" parent="1" source="GsbMImEmcZZuZlUgUzdZ-1" target="E4plYWqVsdsbXwTFyu5T-1">
          <mxGeometry relative="1" as="geometry" />
        </mxCell>
        <mxCell id="GsbMImEmcZZuZlUgUzdZ-1" value="a, b, c, d" style="shape=parallelogram;perimeter=parallelogramPerimeter;whiteSpace=wrap;html=1;fixedSize=1;" vertex="1" parent="1">
          <mxGeometry x="340" y="140" width="120" height="60" as="geometry" />
        </mxCell>
        <mxCell id="QIB0tMAmkTf3iSTFsE7G-2" value="" style="edgeStyle=orthogonalEdgeStyle;rounded=0;orthogonalLoop=1;jettySize=auto;html=1;" edge="1" parent="1" source="E4plYWqVsdsbXwTFyu5T-1">
          <mxGeometry relative="1" as="geometry">
            <mxPoint x="400" y="360" as="targetPoint" />
          </mxGeometry>
        </mxCell>
        <mxCell id="E4plYWqVsdsbXwTFyu5T-1" value="n=(a+b+c+d)/4" style="whiteSpace=wrap;html=1;" vertex="1" parent="1">
          <mxGeometry x="340" y="250" width="120" height="60" as="geometry" />
        </mxCell>
        <mxCell id="QIB0tMAmkTf3iSTFsE7G-5" value="" style="edgeStyle=orthogonalEdgeStyle;rounded=0;orthogonalLoop=1;jettySize=auto;html=1;" edge="1" parent="1" target="QIB0tMAmkTf3iSTFsE7G-4">
          <mxGeometry relative="1" as="geometry">
            <mxPoint x="400" y="410" as="sourcePoint" />
          </mxGeometry>
        </mxCell>
        <mxCell id="QIB0tMAmkTf3iSTFsE7G-4" value="exit" style="ellipse;whiteSpace=wrap;html=1;" vertex="1" parent="1">
          <mxGeometry x="340" y="460" width="120" height="80" as="geometry" />
        </mxCell>
        <mxCell id="QIB0tMAmkTf3iSTFsE7G-6" value="составить блок-схему нахождения среднего арифметического из 4-х чисел" style="rounded=0;whiteSpace=wrap;html=1;" vertex="1" parent="1">
          <mxGeometry x="20" y="30" width="180" height="100" as="geometry" />
        </mxCell>
        <mxCell id="KbqeTtj1vpxh9RSEMfXt-1" value="n" style="shape=document;whiteSpace=wrap;html=1;boundedLbl=1;" vertex="1" parent="1">
          <mxGeometry x="340" y="360" width="120" height="80" as="geometry" />
        </mxCell>
      </root>
    </mxGraphModel>
  </diagram>
  <diagram id="919FwL0ewSRvw4VYE9UB" name="дз 2">
    <mxGraphModel dx="1194" dy="647" grid="1" gridSize="10" guides="1" tooltips="1" connect="1" arrows="1" fold="1" page="1" pageScale="1" pageWidth="827" pageHeight="1169" math="0" shadow="0">
      <root>
        <mxCell id="0" />
        <mxCell id="1" parent="0" />
        <mxCell id="ikB9EdyHdqoQKb3T_OkO-1" value="&lt;meta charset=&quot;utf-8&quot;&gt;&lt;span style=&quot;font-style: normal; font-variant-caps: normal; font-weight: 400; letter-spacing: normal; text-align: start; text-indent: 0px; text-transform: none; word-spacing: 0px; -webkit-text-stroke-width: 0px; text-decoration: none; caret-color: rgb(44, 45, 48); color: rgb(44, 45, 48); font-family: Roboto, &amp;quot;San Francisco&amp;quot;, &amp;quot;Helvetica Neue&amp;quot;, Helvetica, Arial; font-size: 15px; background-color: rgb(255, 255, 255); float: none; display: inline !important;&quot;&gt;Составить блок-схему нахождения факториала N.&lt;/span&gt;" style="rounded=0;whiteSpace=wrap;html=1;" parent="1" vertex="1">
          <mxGeometry x="120" y="110" width="190" height="120" as="geometry" />
        </mxCell>
        <mxCell id="kkkY6pnV30qQVcs3vCp3-3" value="" style="edgeStyle=orthogonalEdgeStyle;rounded=0;orthogonalLoop=1;jettySize=auto;html=1;" parent="1" source="kkkY6pnV30qQVcs3vCp3-1" target="kkkY6pnV30qQVcs3vCp3-2" edge="1">
          <mxGeometry relative="1" as="geometry" />
        </mxCell>
        <mxCell id="kkkY6pnV30qQVcs3vCp3-1" value="start" style="ellipse;whiteSpace=wrap;html=1;" parent="1" vertex="1">
          <mxGeometry x="390" y="160" width="120" height="80" as="geometry" />
        </mxCell>
        <mxCell id="LaDc6BkowcfEiQ4nqkDh-2" value="" style="edgeStyle=orthogonalEdgeStyle;rounded=0;orthogonalLoop=1;jettySize=auto;html=1;" parent="1" source="kkkY6pnV30qQVcs3vCp3-2" target="LaDc6BkowcfEiQ4nqkDh-1" edge="1">
          <mxGeometry relative="1" as="geometry" />
        </mxCell>
        <mxCell id="kkkY6pnV30qQVcs3vCp3-2" value="n" style="shape=parallelogram;perimeter=parallelogramPerimeter;whiteSpace=wrap;html=1;fixedSize=1;" parent="1" vertex="1">
          <mxGeometry x="390" y="280" width="120" height="60" as="geometry" />
        </mxCell>
        <mxCell id="LaDc6BkowcfEiQ4nqkDh-4" value="" style="edgeStyle=orthogonalEdgeStyle;rounded=0;orthogonalLoop=1;jettySize=auto;html=1;entryX=0.5;entryY=0;entryDx=0;entryDy=0;" parent="1" source="LaDc6BkowcfEiQ4nqkDh-1" target="Z0hB8DJ8JCLGMSWXv0kY-1" edge="1">
          <mxGeometry relative="1" as="geometry">
            <mxPoint x="450" y="470" as="targetPoint" />
          </mxGeometry>
        </mxCell>
        <mxCell id="LaDc6BkowcfEiQ4nqkDh-1" value="k = 1&lt;br&gt;result = 1" style="whiteSpace=wrap;html=1;" parent="1" vertex="1">
          <mxGeometry x="385" y="380" width="130" height="60" as="geometry" />
        </mxCell>
        <mxCell id="Z0hB8DJ8JCLGMSWXv0kY-3" value="" style="edgeStyle=orthogonalEdgeStyle;rounded=0;orthogonalLoop=1;jettySize=auto;html=1;" parent="1" source="Z0hB8DJ8JCLGMSWXv0kY-1" target="Z0hB8DJ8JCLGMSWXv0kY-2" edge="1">
          <mxGeometry relative="1" as="geometry" />
        </mxCell>
        <mxCell id="Z0hB8DJ8JCLGMSWXv0kY-1" value="&lt;span style=&quot;caret-color: rgb(0, 0, 0); color: rgb(0, 0, 0); font-family: Helvetica; font-size: 12px; font-style: normal; font-variant-caps: normal; font-weight: 400; letter-spacing: normal; text-align: center; text-indent: 0px; text-transform: none; word-spacing: 0px; -webkit-text-stroke-width: 0px; background-color: rgb(251, 251, 251); text-decoration: none; float: none; display: inline !important;&quot;&gt;result = k * result&lt;/span&gt;" style="rounded=0;whiteSpace=wrap;html=1;" parent="1" vertex="1">
          <mxGeometry x="390" y="479" width="120" height="60" as="geometry" />
        </mxCell>
        <mxCell id="Z0hB8DJ8JCLGMSWXv0kY-5" value="yes" style="edgeStyle=orthogonalEdgeStyle;rounded=0;orthogonalLoop=1;jettySize=auto;html=1;" parent="1" source="Z0hB8DJ8JCLGMSWXv0kY-2" target="Z0hB8DJ8JCLGMSWXv0kY-4" edge="1">
          <mxGeometry relative="1" as="geometry" />
        </mxCell>
        <mxCell id="Z0hB8DJ8JCLGMSWXv0kY-7" value="no" style="edgeStyle=orthogonalEdgeStyle;rounded=0;orthogonalLoop=1;jettySize=auto;html=1;" parent="1" source="Z0hB8DJ8JCLGMSWXv0kY-2" target="Z0hB8DJ8JCLGMSWXv0kY-6" edge="1">
          <mxGeometry relative="1" as="geometry" />
        </mxCell>
        <mxCell id="Z0hB8DJ8JCLGMSWXv0kY-2" value="k &amp;lt; n" style="rhombus;whiteSpace=wrap;html=1;rounded=0;" parent="1" vertex="1">
          <mxGeometry x="380" y="609" width="140" height="80" as="geometry" />
        </mxCell>
        <mxCell id="Z0hB8DJ8JCLGMSWXv0kY-8" style="edgeStyle=orthogonalEdgeStyle;rounded=0;orthogonalLoop=1;jettySize=auto;html=1;entryX=0;entryY=0.25;entryDx=0;entryDy=0;" parent="1" target="Z0hB8DJ8JCLGMSWXv0kY-1" edge="1">
          <mxGeometry relative="1" as="geometry">
            <mxPoint x="210" y="625.69" as="sourcePoint" />
            <mxPoint x="380" y="490" as="targetPoint" />
            <Array as="points">
              <mxPoint x="270" y="626" />
              <mxPoint x="270" y="494" />
            </Array>
          </mxGeometry>
        </mxCell>
        <mxCell id="Z0hB8DJ8JCLGMSWXv0kY-4" value="k+1" style="whiteSpace=wrap;html=1;rounded=0;" parent="1" vertex="1">
          <mxGeometry x="210" y="619" width="120" height="60" as="geometry" />
        </mxCell>
        <mxCell id="Z0hB8DJ8JCLGMSWXv0kY-10" value="" style="edgeStyle=orthogonalEdgeStyle;rounded=0;orthogonalLoop=1;jettySize=auto;html=1;" parent="1" source="Z0hB8DJ8JCLGMSWXv0kY-6" target="Z0hB8DJ8JCLGMSWXv0kY-9" edge="1">
          <mxGeometry relative="1" as="geometry" />
        </mxCell>
        <mxCell id="Z0hB8DJ8JCLGMSWXv0kY-6" value="result" style="whiteSpace=wrap;html=1;rounded=0;" parent="1" vertex="1">
          <mxGeometry x="590" y="619" width="120" height="61" as="geometry" />
        </mxCell>
        <mxCell id="Z0hB8DJ8JCLGMSWXv0kY-12" value="" style="edgeStyle=orthogonalEdgeStyle;rounded=0;orthogonalLoop=1;jettySize=auto;html=1;" parent="1" source="Z0hB8DJ8JCLGMSWXv0kY-9" target="Z0hB8DJ8JCLGMSWXv0kY-11" edge="1">
          <mxGeometry relative="1" as="geometry" />
        </mxCell>
        <mxCell id="Z0hB8DJ8JCLGMSWXv0kY-9" value="result" style="shape=document;whiteSpace=wrap;html=1;boundedLbl=1;rounded=0;" parent="1" vertex="1">
          <mxGeometry x="590" y="730" width="120" height="80" as="geometry" />
        </mxCell>
        <mxCell id="Z0hB8DJ8JCLGMSWXv0kY-11" value="exit" style="ellipse;whiteSpace=wrap;html=1;rounded=0;" parent="1" vertex="1">
          <mxGeometry x="590" y="860" width="120" height="80" as="geometry" />
        </mxCell>
      </root>
    </mxGraphModel>
  </diagram>
  <diagram id="G946uxxdutl2SGGPbu0r" name="семинар 2">
    <mxGraphModel dx="1194" dy="647" grid="1" gridSize="10" guides="1" tooltips="1" connect="1" arrows="1" fold="1" page="1" pageScale="1" pageWidth="827" pageHeight="1169" math="0" shadow="0">
      <root>
        <mxCell id="0" />
        <mxCell id="1" parent="0" />
        <mxCell id="RApkyhRHKesq32CYdKGj-10" value="Найти сумму всех элементов массива с нечетными индексами" style="whiteSpace=wrap;html=1;aspect=fixed;" parent="1" vertex="1">
          <mxGeometry x="30" y="30" width="200" height="200" as="geometry" />
        </mxCell>
        <mxCell id="RApkyhRHKesq32CYdKGj-13" style="edgeStyle=orthogonalEdgeStyle;rounded=0;orthogonalLoop=1;jettySize=auto;html=1;entryX=0.5;entryY=0;entryDx=0;entryDy=0;" parent="1" source="RApkyhRHKesq32CYdKGj-11" target="RApkyhRHKesq32CYdKGj-12" edge="1">
          <mxGeometry relative="1" as="geometry" />
        </mxCell>
        <mxCell id="RApkyhRHKesq32CYdKGj-11" value="start" style="ellipse;whiteSpace=wrap;html=1;" parent="1" vertex="1">
          <mxGeometry x="370" y="320" width="120" height="80" as="geometry" />
        </mxCell>
        <mxCell id="RApkyhRHKesq32CYdKGj-15" value="" style="edgeStyle=orthogonalEdgeStyle;rounded=0;orthogonalLoop=1;jettySize=auto;html=1;" parent="1" source="RApkyhRHKesq32CYdKGj-12" target="RApkyhRHKesq32CYdKGj-14" edge="1">
          <mxGeometry relative="1" as="geometry" />
        </mxCell>
        <mxCell id="RApkyhRHKesq32CYdKGj-12" value="array ={1, 5, 6, 9}&lt;br&gt;size=4&lt;br&gt;index= 0&lt;br&gt;sum= 0" style="rounded=0;whiteSpace=wrap;html=1;" parent="1" vertex="1">
          <mxGeometry x="335" y="460" width="190" height="100" as="geometry" />
        </mxCell>
        <mxCell id="RApkyhRHKesq32CYdKGj-14" value="index &amp;lt; size" style="rhombus;whiteSpace=wrap;html=1;rounded=0;" parent="1" vertex="1">
          <mxGeometry x="330" y="650" width="200" height="120" as="geometry" />
        </mxCell>
      </root>
    </mxGraphModel>
  </diagram>
  <diagram id="DlgZu6OTDBh0RHvLwYqk" name="задача 2">
    <mxGraphModel dx="1194" dy="647" grid="1" gridSize="10" guides="1" tooltips="1" connect="1" arrows="1" fold="1" page="1" pageScale="1" pageWidth="827" pageHeight="1169" math="0" shadow="0">
      <root>
        <mxCell id="0" />
        <mxCell id="1" parent="0" />
        <mxCell id="sl0xEfcZAbUAr501w8eH-2" value="Найти сумму всех элементов массива &#xa;с нечетным значением. &#xa;&#xa;Например, для массива [1, 2, 4, 6] ответ будет 1, &#xa;т.к. здесь у нас только один нечетный элемент." style="rounded=0;whiteSpace=wrap;html=1;" parent="1" vertex="1">
          <mxGeometry y="10" width="210" height="190" as="geometry" />
        </mxCell>
      </root>
    </mxGraphModel>
  </diagram>
  <diagram id="9htUTWcwH04GSX7w8UN8" name="Страница 9">
    <mxGraphModel dx="1592" dy="863" grid="1" gridSize="10" guides="1" tooltips="1" connect="1" arrows="1" fold="1" page="1" pageScale="1" pageWidth="827" pageHeight="1169" math="0" shadow="0">
      <root>
        <mxCell id="0" />
        <mxCell id="1" parent="0" />
        <mxCell id="9Es9glKBM2mXqFkVcjrN-1" value="Нахождение индексов максимального и минимального элемента массива" style="rounded=0;whiteSpace=wrap;html=1;" vertex="1" parent="1">
          <mxGeometry x="120" y="140" width="180" height="80" as="geometry" />
        </mxCell>
        <mxCell id="9Es9glKBM2mXqFkVcjrN-4" value="" style="edgeStyle=orthogonalEdgeStyle;rounded=0;orthogonalLoop=1;jettySize=auto;html=1;" edge="1" parent="1" source="9Es9glKBM2mXqFkVcjrN-2" target="9Es9glKBM2mXqFkVcjrN-3">
          <mxGeometry relative="1" as="geometry" />
        </mxCell>
        <mxCell id="9Es9glKBM2mXqFkVcjrN-2" value="start" style="ellipse;whiteSpace=wrap;html=1;" vertex="1" parent="1">
          <mxGeometry x="340" y="130" width="120" height="80" as="geometry" />
        </mxCell>
        <mxCell id="oEuT6A8rfVWgii91V8X9-2" value="" style="edgeStyle=orthogonalEdgeStyle;rounded=0;orthogonalLoop=1;jettySize=auto;html=1;" edge="1" parent="1" source="9Es9glKBM2mXqFkVcjrN-3" target="oEuT6A8rfVWgii91V8X9-1">
          <mxGeometry relative="1" as="geometry" />
        </mxCell>
        <mxCell id="9Es9glKBM2mXqFkVcjrN-3" value="array = {3, 8, 15, 4, 0}&lt;br&gt;size = 5&lt;br&gt;index = 0&amp;nbsp;" style="whiteSpace=wrap;html=1;" vertex="1" parent="1">
          <mxGeometry x="317" y="250" width="166" height="80" as="geometry" />
        </mxCell>
        <mxCell id="ffSHazaTncmDhlfiB3Lb-48" style="edgeStyle=orthogonalEdgeStyle;rounded=0;orthogonalLoop=1;jettySize=auto;html=1;entryX=0.536;entryY=-0.001;entryDx=0;entryDy=0;entryPerimeter=0;" edge="1" parent="1" source="oEuT6A8rfVWgii91V8X9-1" target="ffSHazaTncmDhlfiB3Lb-26">
          <mxGeometry relative="1" as="geometry">
            <Array as="points">
              <mxPoint x="400" y="510" />
            </Array>
          </mxGeometry>
        </mxCell>
        <mxCell id="oEuT6A8rfVWgii91V8X9-1" value="max = 0&lt;br&gt;min = 0&amp;nbsp;" style="whiteSpace=wrap;html=1;" vertex="1" parent="1">
          <mxGeometry x="340" y="380" width="120" height="60" as="geometry" />
        </mxCell>
        <mxCell id="1imZ2v5fyehxbBhTALnf-1" value="Задание на «разворот» массива. Нужно перевернуть массив и записать его в обратном порядке." style="rounded=0;whiteSpace=wrap;html=1;" vertex="1" parent="1">
          <mxGeometry x="860" y="130" width="190" height="100" as="geometry" />
        </mxCell>
        <mxCell id="1imZ2v5fyehxbBhTALnf-4" value="" style="edgeStyle=orthogonalEdgeStyle;rounded=0;orthogonalLoop=1;jettySize=auto;html=1;" edge="1" parent="1" source="1imZ2v5fyehxbBhTALnf-2">
          <mxGeometry relative="1" as="geometry">
            <mxPoint x="1241" y="260" as="targetPoint" />
          </mxGeometry>
        </mxCell>
        <mxCell id="1imZ2v5fyehxbBhTALnf-2" value="start" style="ellipse;whiteSpace=wrap;html=1;" vertex="1" parent="1">
          <mxGeometry x="1181" y="130" width="120" height="80" as="geometry" />
        </mxCell>
        <mxCell id="1imZ2v5fyehxbBhTALnf-7" value="" style="edgeStyle=orthogonalEdgeStyle;rounded=0;orthogonalLoop=1;jettySize=auto;html=1;" edge="1" parent="1" source="1imZ2v5fyehxbBhTALnf-5" target="1imZ2v5fyehxbBhTALnf-6">
          <mxGeometry relative="1" as="geometry" />
        </mxCell>
        <mxCell id="1imZ2v5fyehxbBhTALnf-5" value="array&amp;nbsp;&lt;br style=&quot;border-color: var(--border-color);&quot;&gt;size&amp;nbsp;" style="shape=parallelogram;perimeter=parallelogramPerimeter;whiteSpace=wrap;html=1;fixedSize=1;" vertex="1" parent="1">
          <mxGeometry x="1166" y="260" width="149" height="70" as="geometry" />
        </mxCell>
        <mxCell id="1imZ2v5fyehxbBhTALnf-31" value="" style="edgeStyle=orthogonalEdgeStyle;rounded=0;orthogonalLoop=1;jettySize=auto;html=1;" edge="1" parent="1" source="1imZ2v5fyehxbBhTALnf-6" target="1imZ2v5fyehxbBhTALnf-30">
          <mxGeometry relative="1" as="geometry" />
        </mxCell>
        <mxCell id="1imZ2v5fyehxbBhTALnf-6" value="temp = 0" style="whiteSpace=wrap;html=1;" vertex="1" parent="1">
          <mxGeometry x="1181" y="360" width="120" height="60" as="geometry" />
        </mxCell>
        <mxCell id="1imZ2v5fyehxbBhTALnf-10" value="array" style="text;strokeColor=none;align=center;fillColor=none;html=1;verticalAlign=middle;whiteSpace=wrap;rounded=0;" vertex="1" parent="1">
          <mxGeometry x="827" y="320" width="60" height="30" as="geometry" />
        </mxCell>
        <mxCell id="1imZ2v5fyehxbBhTALnf-11" value="3" style="text;html=1;align=center;verticalAlign=middle;resizable=0;points=[];autosize=1;strokeColor=none;fillColor=none;" vertex="1" parent="1">
          <mxGeometry x="887" y="320" width="30" height="30" as="geometry" />
        </mxCell>
        <mxCell id="1imZ2v5fyehxbBhTALnf-12" value="8" style="text;html=1;align=center;verticalAlign=middle;resizable=0;points=[];autosize=1;strokeColor=none;fillColor=none;" vertex="1" parent="1">
          <mxGeometry x="930" y="320" width="30" height="30" as="geometry" />
        </mxCell>
        <mxCell id="1imZ2v5fyehxbBhTALnf-13" value="15" style="text;html=1;align=center;verticalAlign=middle;resizable=0;points=[];autosize=1;strokeColor=none;fillColor=none;" vertex="1" parent="1">
          <mxGeometry x="960" y="320" width="40" height="30" as="geometry" />
        </mxCell>
        <mxCell id="1imZ2v5fyehxbBhTALnf-14" value="4" style="text;html=1;align=center;verticalAlign=middle;resizable=0;points=[];autosize=1;strokeColor=none;fillColor=none;" vertex="1" parent="1">
          <mxGeometry x="1010" y="320" width="30" height="30" as="geometry" />
        </mxCell>
        <mxCell id="1imZ2v5fyehxbBhTALnf-15" value="0" style="text;html=1;align=center;verticalAlign=middle;resizable=0;points=[];autosize=1;strokeColor=none;fillColor=none;" vertex="1" parent="1">
          <mxGeometry x="1040" y="320" width="30" height="30" as="geometry" />
        </mxCell>
        <mxCell id="1imZ2v5fyehxbBhTALnf-16" value="size" style="text;html=1;align=center;verticalAlign=middle;resizable=0;points=[];autosize=1;strokeColor=none;fillColor=none;" vertex="1" parent="1">
          <mxGeometry x="830" y="278" width="40" height="30" as="geometry" />
        </mxCell>
        <mxCell id="1imZ2v5fyehxbBhTALnf-17" value="5" style="text;html=1;align=center;verticalAlign=middle;resizable=0;points=[];autosize=1;strokeColor=none;fillColor=none;" vertex="1" parent="1">
          <mxGeometry x="885" y="278" width="30" height="30" as="geometry" />
        </mxCell>
        <mxCell id="1imZ2v5fyehxbBhTALnf-19" value="index" style="text;html=1;align=center;verticalAlign=middle;resizable=0;points=[];autosize=1;strokeColor=none;fillColor=none;" vertex="1" parent="1">
          <mxGeometry x="830" y="360" width="50" height="30" as="geometry" />
        </mxCell>
        <mxCell id="1imZ2v5fyehxbBhTALnf-20" value="0" style="text;html=1;align=center;verticalAlign=middle;resizable=0;points=[];autosize=1;strokeColor=none;fillColor=none;" vertex="1" parent="1">
          <mxGeometry x="887" y="360" width="30" height="30" as="geometry" />
        </mxCell>
        <mxCell id="1imZ2v5fyehxbBhTALnf-21" value="1" style="text;html=1;align=center;verticalAlign=middle;resizable=0;points=[];autosize=1;strokeColor=none;fillColor=none;" vertex="1" parent="1">
          <mxGeometry x="930" y="360" width="30" height="30" as="geometry" />
        </mxCell>
        <mxCell id="1imZ2v5fyehxbBhTALnf-22" value="2" style="text;html=1;align=center;verticalAlign=middle;resizable=0;points=[];autosize=1;strokeColor=none;fillColor=none;" vertex="1" parent="1">
          <mxGeometry x="965" y="360" width="30" height="30" as="geometry" />
        </mxCell>
        <mxCell id="1imZ2v5fyehxbBhTALnf-23" value="3" style="text;html=1;align=center;verticalAlign=middle;resizable=0;points=[];autosize=1;strokeColor=none;fillColor=none;" vertex="1" parent="1">
          <mxGeometry x="1010" y="360" width="30" height="30" as="geometry" />
        </mxCell>
        <mxCell id="1imZ2v5fyehxbBhTALnf-24" value="4" style="text;html=1;align=center;verticalAlign=middle;resizable=0;points=[];autosize=1;strokeColor=none;fillColor=none;" vertex="1" parent="1">
          <mxGeometry x="1040" y="360" width="30" height="30" as="geometry" />
        </mxCell>
        <mxCell id="1imZ2v5fyehxbBhTALnf-30" value="array [i]" style="rhombus;whiteSpace=wrap;html=1;" vertex="1" parent="1">
          <mxGeometry x="1161" y="470" width="160" height="80" as="geometry" />
        </mxCell>
        <mxCell id="1imZ2v5fyehxbBhTALnf-32" value="Найти сумму элементов массива, лежащих между максимальным и минимальным по значению элементами" style="rounded=0;whiteSpace=wrap;html=1;" vertex="1" parent="1">
          <mxGeometry x="1680" y="130" width="160" height="80" as="geometry" />
        </mxCell>
        <mxCell id="1imZ2v5fyehxbBhTALnf-49" value="array" style="text;strokeColor=none;align=center;fillColor=none;html=1;verticalAlign=middle;whiteSpace=wrap;rounded=0;" vertex="1" parent="1">
          <mxGeometry x="1650" y="302" width="60" height="30" as="geometry" />
        </mxCell>
        <mxCell id="1imZ2v5fyehxbBhTALnf-50" value="3" style="text;html=1;align=center;verticalAlign=middle;resizable=0;points=[];autosize=1;strokeColor=none;fillColor=none;" vertex="1" parent="1">
          <mxGeometry x="1710" y="302" width="30" height="30" as="geometry" />
        </mxCell>
        <mxCell id="1imZ2v5fyehxbBhTALnf-51" value="8" style="text;html=1;align=center;verticalAlign=middle;resizable=0;points=[];autosize=1;strokeColor=none;fillColor=none;" vertex="1" parent="1">
          <mxGeometry x="1753" y="302" width="30" height="30" as="geometry" />
        </mxCell>
        <mxCell id="1imZ2v5fyehxbBhTALnf-52" value="15" style="text;html=1;align=center;verticalAlign=middle;resizable=0;points=[];autosize=1;strokeColor=none;fillColor=none;" vertex="1" parent="1">
          <mxGeometry x="1783" y="302" width="40" height="30" as="geometry" />
        </mxCell>
        <mxCell id="1imZ2v5fyehxbBhTALnf-53" value="4" style="text;html=1;align=center;verticalAlign=middle;resizable=0;points=[];autosize=1;strokeColor=none;fillColor=none;" vertex="1" parent="1">
          <mxGeometry x="1833" y="302" width="30" height="30" as="geometry" />
        </mxCell>
        <mxCell id="1imZ2v5fyehxbBhTALnf-54" value="0" style="text;html=1;align=center;verticalAlign=middle;resizable=0;points=[];autosize=1;strokeColor=none;fillColor=none;" vertex="1" parent="1">
          <mxGeometry x="1863" y="302" width="30" height="30" as="geometry" />
        </mxCell>
        <mxCell id="1imZ2v5fyehxbBhTALnf-55" value="size" style="text;html=1;align=center;verticalAlign=middle;resizable=0;points=[];autosize=1;strokeColor=none;fillColor=none;" vertex="1" parent="1">
          <mxGeometry x="1653" y="260" width="40" height="30" as="geometry" />
        </mxCell>
        <mxCell id="1imZ2v5fyehxbBhTALnf-56" value="5" style="text;html=1;align=center;verticalAlign=middle;resizable=0;points=[];autosize=1;strokeColor=none;fillColor=none;" vertex="1" parent="1">
          <mxGeometry x="1708" y="260" width="30" height="30" as="geometry" />
        </mxCell>
        <mxCell id="1imZ2v5fyehxbBhTALnf-57" value="index" style="text;html=1;align=center;verticalAlign=middle;resizable=0;points=[];autosize=1;strokeColor=none;fillColor=none;" vertex="1" parent="1">
          <mxGeometry x="1653" y="342" width="50" height="30" as="geometry" />
        </mxCell>
        <mxCell id="1imZ2v5fyehxbBhTALnf-58" value="0" style="text;html=1;align=center;verticalAlign=middle;resizable=0;points=[];autosize=1;strokeColor=none;fillColor=none;" vertex="1" parent="1">
          <mxGeometry x="1710" y="342" width="30" height="30" as="geometry" />
        </mxCell>
        <mxCell id="1imZ2v5fyehxbBhTALnf-59" value="1" style="text;html=1;align=center;verticalAlign=middle;resizable=0;points=[];autosize=1;strokeColor=none;fillColor=none;" vertex="1" parent="1">
          <mxGeometry x="1753" y="342" width="30" height="30" as="geometry" />
        </mxCell>
        <mxCell id="1imZ2v5fyehxbBhTALnf-60" value="2" style="text;html=1;align=center;verticalAlign=middle;resizable=0;points=[];autosize=1;strokeColor=none;fillColor=none;" vertex="1" parent="1">
          <mxGeometry x="1788" y="342" width="30" height="30" as="geometry" />
        </mxCell>
        <mxCell id="1imZ2v5fyehxbBhTALnf-61" value="3" style="text;html=1;align=center;verticalAlign=middle;resizable=0;points=[];autosize=1;strokeColor=none;fillColor=none;" vertex="1" parent="1">
          <mxGeometry x="1833" y="342" width="30" height="30" as="geometry" />
        </mxCell>
        <mxCell id="1imZ2v5fyehxbBhTALnf-62" value="4" style="text;html=1;align=center;verticalAlign=middle;resizable=0;points=[];autosize=1;strokeColor=none;fillColor=none;" vertex="1" parent="1">
          <mxGeometry x="1863" y="342" width="30" height="30" as="geometry" />
        </mxCell>
        <mxCell id="ffSHazaTncmDhlfiB3Lb-8" value="start" style="text;html=1;align=center;verticalAlign=middle;resizable=0;points=[];autosize=1;strokeColor=none;fillColor=none;" vertex="1" parent="1">
          <mxGeometry x="1655" y="378" width="50" height="30" as="geometry" />
        </mxCell>
        <mxCell id="ffSHazaTncmDhlfiB3Lb-9" value="end" style="text;html=1;align=center;verticalAlign=middle;resizable=0;points=[];autosize=1;strokeColor=none;fillColor=none;" vertex="1" parent="1">
          <mxGeometry x="1660" y="418" width="40" height="30" as="geometry" />
        </mxCell>
        <mxCell id="ffSHazaTncmDhlfiB3Lb-10" value="index = 2" style="text;html=1;align=center;verticalAlign=middle;resizable=0;points=[];autosize=1;strokeColor=none;fillColor=none;" vertex="1" parent="1">
          <mxGeometry x="1710" y="380" width="70" height="30" as="geometry" />
        </mxCell>
        <mxCell id="ffSHazaTncmDhlfiB3Lb-11" value="index = 4" style="text;html=1;align=center;verticalAlign=middle;resizable=0;points=[];autosize=1;strokeColor=none;fillColor=none;" vertex="1" parent="1">
          <mxGeometry x="1708" y="418" width="70" height="30" as="geometry" />
        </mxCell>
        <mxCell id="ffSHazaTncmDhlfiB3Lb-12" value="array" style="text;strokeColor=none;align=center;fillColor=none;html=1;verticalAlign=middle;whiteSpace=wrap;rounded=0;" vertex="1" parent="1">
          <mxGeometry x="57" y="310" width="60" height="30" as="geometry" />
        </mxCell>
        <mxCell id="ffSHazaTncmDhlfiB3Lb-13" value="3" style="text;html=1;align=center;verticalAlign=middle;resizable=0;points=[];autosize=1;strokeColor=none;fillColor=none;" vertex="1" parent="1">
          <mxGeometry x="117" y="310" width="30" height="30" as="geometry" />
        </mxCell>
        <mxCell id="ffSHazaTncmDhlfiB3Lb-14" value="8" style="text;html=1;align=center;verticalAlign=middle;resizable=0;points=[];autosize=1;strokeColor=none;fillColor=none;" vertex="1" parent="1">
          <mxGeometry x="160" y="310" width="30" height="30" as="geometry" />
        </mxCell>
        <mxCell id="ffSHazaTncmDhlfiB3Lb-15" value="15" style="text;html=1;align=center;verticalAlign=middle;resizable=0;points=[];autosize=1;strokeColor=none;fillColor=none;" vertex="1" parent="1">
          <mxGeometry x="190" y="310" width="40" height="30" as="geometry" />
        </mxCell>
        <mxCell id="ffSHazaTncmDhlfiB3Lb-16" value="4" style="text;html=1;align=center;verticalAlign=middle;resizable=0;points=[];autosize=1;strokeColor=none;fillColor=none;" vertex="1" parent="1">
          <mxGeometry x="240" y="310" width="30" height="30" as="geometry" />
        </mxCell>
        <mxCell id="ffSHazaTncmDhlfiB3Lb-17" value="0" style="text;html=1;align=center;verticalAlign=middle;resizable=0;points=[];autosize=1;strokeColor=none;fillColor=none;" vertex="1" parent="1">
          <mxGeometry x="270" y="310" width="30" height="30" as="geometry" />
        </mxCell>
        <mxCell id="ffSHazaTncmDhlfiB3Lb-18" value="size" style="text;html=1;align=center;verticalAlign=middle;resizable=0;points=[];autosize=1;strokeColor=none;fillColor=none;" vertex="1" parent="1">
          <mxGeometry x="60" y="268" width="40" height="30" as="geometry" />
        </mxCell>
        <mxCell id="ffSHazaTncmDhlfiB3Lb-19" value="5" style="text;html=1;align=center;verticalAlign=middle;resizable=0;points=[];autosize=1;strokeColor=none;fillColor=none;" vertex="1" parent="1">
          <mxGeometry x="115" y="268" width="30" height="30" as="geometry" />
        </mxCell>
        <mxCell id="ffSHazaTncmDhlfiB3Lb-20" value="index" style="text;html=1;align=center;verticalAlign=middle;resizable=0;points=[];autosize=1;strokeColor=none;fillColor=none;" vertex="1" parent="1">
          <mxGeometry x="60" y="350" width="50" height="30" as="geometry" />
        </mxCell>
        <mxCell id="ffSHazaTncmDhlfiB3Lb-21" value="0" style="text;html=1;align=center;verticalAlign=middle;resizable=0;points=[];autosize=1;strokeColor=none;fillColor=none;" vertex="1" parent="1">
          <mxGeometry x="117" y="350" width="30" height="30" as="geometry" />
        </mxCell>
        <mxCell id="ffSHazaTncmDhlfiB3Lb-22" value="1" style="text;html=1;align=center;verticalAlign=middle;resizable=0;points=[];autosize=1;strokeColor=none;fillColor=none;" vertex="1" parent="1">
          <mxGeometry x="160" y="350" width="30" height="30" as="geometry" />
        </mxCell>
        <mxCell id="ffSHazaTncmDhlfiB3Lb-23" value="2" style="text;html=1;align=center;verticalAlign=middle;resizable=0;points=[];autosize=1;strokeColor=none;fillColor=none;" vertex="1" parent="1">
          <mxGeometry x="195" y="350" width="30" height="30" as="geometry" />
        </mxCell>
        <mxCell id="ffSHazaTncmDhlfiB3Lb-24" value="3" style="text;html=1;align=center;verticalAlign=middle;resizable=0;points=[];autosize=1;strokeColor=none;fillColor=none;" vertex="1" parent="1">
          <mxGeometry x="240" y="350" width="30" height="30" as="geometry" />
        </mxCell>
        <mxCell id="ffSHazaTncmDhlfiB3Lb-25" value="4" style="text;html=1;align=center;verticalAlign=middle;resizable=0;points=[];autosize=1;strokeColor=none;fillColor=none;" vertex="1" parent="1">
          <mxGeometry x="270" y="350" width="30" height="30" as="geometry" />
        </mxCell>
        <mxCell id="ffSHazaTncmDhlfiB3Lb-53" value="yes" style="edgeStyle=orthogonalEdgeStyle;rounded=0;orthogonalLoop=1;jettySize=auto;html=1;exitX=0;exitY=1;exitDx=0;exitDy=0;" edge="1" parent="1" source="ffSHazaTncmDhlfiB3Lb-26" target="ffSHazaTncmDhlfiB3Lb-27">
          <mxGeometry relative="1" as="geometry">
            <Array as="points">
              <mxPoint x="290" y="570" />
            </Array>
          </mxGeometry>
        </mxCell>
        <mxCell id="ffSHazaTncmDhlfiB3Lb-54" value="yes" style="edgeStyle=orthogonalEdgeStyle;rounded=0;orthogonalLoop=1;jettySize=auto;html=1;exitX=1;exitY=1;exitDx=0;exitDy=0;" edge="1" parent="1" source="ffSHazaTncmDhlfiB3Lb-26" target="ffSHazaTncmDhlfiB3Lb-55">
          <mxGeometry relative="1" as="geometry">
            <mxPoint x="530" y="650" as="targetPoint" />
            <Array as="points">
              <mxPoint x="510" y="570" />
            </Array>
          </mxGeometry>
        </mxCell>
        <mxCell id="ffSHazaTncmDhlfiB3Lb-58" value="no" style="edgeStyle=orthogonalEdgeStyle;rounded=0;orthogonalLoop=1;jettySize=auto;html=1;" edge="1" parent="1" source="ffSHazaTncmDhlfiB3Lb-26">
          <mxGeometry relative="1" as="geometry">
            <mxPoint x="610" y="550" as="targetPoint" />
          </mxGeometry>
        </mxCell>
        <mxCell id="ffSHazaTncmDhlfiB3Lb-26" value="index &amp;lt; size&amp;nbsp;" style="rhombus;whiteSpace=wrap;html=1;" vertex="1" parent="1">
          <mxGeometry x="280" y="510" width="240" height="80" as="geometry" />
        </mxCell>
        <mxCell id="ffSHazaTncmDhlfiB3Lb-37" value="no" style="edgeStyle=orthogonalEdgeStyle;rounded=0;orthogonalLoop=1;jettySize=auto;html=1;" edge="1" parent="1" source="ffSHazaTncmDhlfiB3Lb-27" target="ffSHazaTncmDhlfiB3Lb-36">
          <mxGeometry relative="1" as="geometry" />
        </mxCell>
        <mxCell id="ffSHazaTncmDhlfiB3Lb-46" style="edgeStyle=orthogonalEdgeStyle;rounded=0;orthogonalLoop=1;jettySize=auto;html=1;entryX=0.5;entryY=0;entryDx=0;entryDy=0;" edge="1" parent="1" source="ffSHazaTncmDhlfiB3Lb-27" target="ffSHazaTncmDhlfiB3Lb-31">
          <mxGeometry relative="1" as="geometry" />
        </mxCell>
        <mxCell id="ffSHazaTncmDhlfiB3Lb-27" value="max &amp;lt; &amp;nbsp;array[Index]" style="rhombus;whiteSpace=wrap;html=1;" vertex="1" parent="1">
          <mxGeometry x="210" y="650" width="150" height="80" as="geometry" />
        </mxCell>
        <mxCell id="ffSHazaTncmDhlfiB3Lb-38" style="edgeStyle=orthogonalEdgeStyle;rounded=0;orthogonalLoop=1;jettySize=auto;html=1;entryX=0.432;entryY=1.017;entryDx=0;entryDy=0;entryPerimeter=0;" edge="1" parent="1" source="ffSHazaTncmDhlfiB3Lb-31" target="ffSHazaTncmDhlfiB3Lb-36">
          <mxGeometry relative="1" as="geometry">
            <Array as="points">
              <mxPoint x="87" y="800" />
              <mxPoint x="87" y="721" />
            </Array>
          </mxGeometry>
        </mxCell>
        <mxCell id="ffSHazaTncmDhlfiB3Lb-31" value="max = array[index]" style="rounded=0;whiteSpace=wrap;html=1;" vertex="1" parent="1">
          <mxGeometry x="225" y="770" width="120" height="60" as="geometry" />
        </mxCell>
        <mxCell id="ffSHazaTncmDhlfiB3Lb-40" style="edgeStyle=orthogonalEdgeStyle;rounded=0;orthogonalLoop=1;jettySize=auto;html=1;entryX=0;entryY=0.5;entryDx=0;entryDy=0;" edge="1" parent="1" source="ffSHazaTncmDhlfiB3Lb-36" target="ffSHazaTncmDhlfiB3Lb-26">
          <mxGeometry relative="1" as="geometry">
            <Array as="points">
              <mxPoint x="90" y="550" />
            </Array>
          </mxGeometry>
        </mxCell>
        <mxCell id="ffSHazaTncmDhlfiB3Lb-36" value="index = index + 1" style="whiteSpace=wrap;html=1;" vertex="1" parent="1">
          <mxGeometry x="27" y="660" width="120" height="60" as="geometry" />
        </mxCell>
        <mxCell id="ffSHazaTncmDhlfiB3Lb-66" value="" style="edgeStyle=orthogonalEdgeStyle;rounded=0;orthogonalLoop=1;jettySize=auto;html=1;" edge="1" parent="1" source="ffSHazaTncmDhlfiB3Lb-55" target="ffSHazaTncmDhlfiB3Lb-65">
          <mxGeometry relative="1" as="geometry" />
        </mxCell>
        <mxCell id="ffSHazaTncmDhlfiB3Lb-55" value="min &amp;gt; array[index]" style="rhombus;whiteSpace=wrap;html=1;" vertex="1" parent="1">
          <mxGeometry x="440" y="650" width="150" height="80" as="geometry" />
        </mxCell>
        <mxCell id="ffSHazaTncmDhlfiB3Lb-63" value="" style="edgeStyle=orthogonalEdgeStyle;rounded=0;orthogonalLoop=1;jettySize=auto;html=1;" edge="1" parent="1" source="ffSHazaTncmDhlfiB3Lb-60" target="ffSHazaTncmDhlfiB3Lb-62">
          <mxGeometry relative="1" as="geometry" />
        </mxCell>
        <mxCell id="ffSHazaTncmDhlfiB3Lb-60" value="max&lt;br&gt;min" style="shape=document;whiteSpace=wrap;html=1;boundedLbl=1;rounded=0;" vertex="1" parent="1">
          <mxGeometry x="610" y="520.0000000000002" width="120" height="80" as="geometry" />
        </mxCell>
        <mxCell id="ffSHazaTncmDhlfiB3Lb-62" value="end" style="ellipse;whiteSpace=wrap;html=1;rounded=0;" vertex="1" parent="1">
          <mxGeometry x="610" y="760" width="120" height="80" as="geometry" />
        </mxCell>
        <mxCell id="ffSHazaTncmDhlfiB3Lb-68" style="edgeStyle=orthogonalEdgeStyle;rounded=0;orthogonalLoop=1;jettySize=auto;html=1;exitX=0.5;exitY=1;exitDx=0;exitDy=0;" edge="1" parent="1" source="ffSHazaTncmDhlfiB3Lb-65" target="ffSHazaTncmDhlfiB3Lb-36">
          <mxGeometry relative="1" as="geometry">
            <Array as="points">
              <mxPoint x="515" y="850" />
              <mxPoint x="87" y="850" />
            </Array>
          </mxGeometry>
        </mxCell>
        <mxCell id="ffSHazaTncmDhlfiB3Lb-65" value="min = array[index]" style="whiteSpace=wrap;html=1;" vertex="1" parent="1">
          <mxGeometry x="455" y="770" width="120" height="60" as="geometry" />
        </mxCell>
        <mxCell id="3-vqO-VOCX3C3YNpRNve-2" value="" style="edgeStyle=orthogonalEdgeStyle;rounded=0;orthogonalLoop=1;jettySize=auto;html=1;" edge="1" parent="1" source="3-vqO-VOCX3C3YNpRNve-3" target="3-vqO-VOCX3C3YNpRNve-5">
          <mxGeometry relative="1" as="geometry" />
        </mxCell>
        <mxCell id="3-vqO-VOCX3C3YNpRNve-3" value="start" style="ellipse;whiteSpace=wrap;html=1;" vertex="1" parent="1">
          <mxGeometry x="2206" y="100" width="120" height="80" as="geometry" />
        </mxCell>
        <mxCell id="3-vqO-VOCX3C3YNpRNve-4" value="" style="edgeStyle=orthogonalEdgeStyle;rounded=0;orthogonalLoop=1;jettySize=auto;html=1;" edge="1" parent="1" source="3-vqO-VOCX3C3YNpRNve-5" target="3-vqO-VOCX3C3YNpRNve-7">
          <mxGeometry relative="1" as="geometry" />
        </mxCell>
        <mxCell id="3-vqO-VOCX3C3YNpRNve-5" value="array = {3, 8, 15, 4, 0}&lt;br&gt;size = 5&lt;br&gt;index = 0&lt;br&gt;sum = 0&amp;nbsp;" style="whiteSpace=wrap;html=1;" vertex="1" parent="1">
          <mxGeometry x="2183" y="220" width="166" height="80" as="geometry" />
        </mxCell>
        <mxCell id="3-vqO-VOCX3C3YNpRNve-6" style="edgeStyle=orthogonalEdgeStyle;rounded=0;orthogonalLoop=1;jettySize=auto;html=1;entryX=0.536;entryY=-0.001;entryDx=0;entryDy=0;entryPerimeter=0;" edge="1" parent="1" source="3-vqO-VOCX3C3YNpRNve-7" target="3-vqO-VOCX3C3YNpRNve-25">
          <mxGeometry relative="1" as="geometry">
            <Array as="points">
              <mxPoint x="2266" y="480" />
            </Array>
          </mxGeometry>
        </mxCell>
        <mxCell id="3-vqO-VOCX3C3YNpRNve-7" value="max = 0&lt;br&gt;min = 0&lt;br&gt;max_index&lt;br&gt;min_index &amp;nbsp;" style="whiteSpace=wrap;html=1;" vertex="1" parent="1">
          <mxGeometry x="2206" y="350" width="120" height="60" as="geometry" />
        </mxCell>
        <mxCell id="3-vqO-VOCX3C3YNpRNve-22" value="yes" style="edgeStyle=orthogonalEdgeStyle;rounded=0;orthogonalLoop=1;jettySize=auto;html=1;exitX=0;exitY=1;exitDx=0;exitDy=0;" edge="1" parent="1" source="3-vqO-VOCX3C3YNpRNve-25" target="3-vqO-VOCX3C3YNpRNve-28">
          <mxGeometry relative="1" as="geometry">
            <Array as="points">
              <mxPoint x="2156" y="540" />
            </Array>
          </mxGeometry>
        </mxCell>
        <mxCell id="3-vqO-VOCX3C3YNpRNve-23" value="yes" style="edgeStyle=orthogonalEdgeStyle;rounded=0;orthogonalLoop=1;jettySize=auto;html=1;exitX=1;exitY=1;exitDx=0;exitDy=0;" edge="1" parent="1" source="3-vqO-VOCX3C3YNpRNve-25" target="3-vqO-VOCX3C3YNpRNve-34">
          <mxGeometry relative="1" as="geometry">
            <mxPoint x="2396" y="620" as="targetPoint" />
            <Array as="points">
              <mxPoint x="2376" y="540" />
            </Array>
          </mxGeometry>
        </mxCell>
        <mxCell id="3-vqO-VOCX3C3YNpRNve-42" value="no" style="edgeStyle=orthogonalEdgeStyle;rounded=0;orthogonalLoop=1;jettySize=auto;html=1;" edge="1" parent="1" source="3-vqO-VOCX3C3YNpRNve-25" target="3-vqO-VOCX3C3YNpRNve-41">
          <mxGeometry relative="1" as="geometry" />
        </mxCell>
        <mxCell id="3-vqO-VOCX3C3YNpRNve-25" value="index &amp;lt; size&amp;nbsp;" style="rhombus;whiteSpace=wrap;html=1;" vertex="1" parent="1">
          <mxGeometry x="2146" y="480" width="240" height="80" as="geometry" />
        </mxCell>
        <mxCell id="3-vqO-VOCX3C3YNpRNve-26" value="no" style="edgeStyle=orthogonalEdgeStyle;rounded=0;orthogonalLoop=1;jettySize=auto;html=1;" edge="1" parent="1" source="3-vqO-VOCX3C3YNpRNve-28" target="3-vqO-VOCX3C3YNpRNve-32">
          <mxGeometry relative="1" as="geometry" />
        </mxCell>
        <mxCell id="3-vqO-VOCX3C3YNpRNve-27" style="edgeStyle=orthogonalEdgeStyle;rounded=0;orthogonalLoop=1;jettySize=auto;html=1;entryX=0.5;entryY=0;entryDx=0;entryDy=0;" edge="1" parent="1" source="3-vqO-VOCX3C3YNpRNve-28" target="3-vqO-VOCX3C3YNpRNve-30">
          <mxGeometry relative="1" as="geometry" />
        </mxCell>
        <mxCell id="3-vqO-VOCX3C3YNpRNve-28" value="max &amp;lt; &amp;nbsp;array[Index]" style="rhombus;whiteSpace=wrap;html=1;" vertex="1" parent="1">
          <mxGeometry x="2076" y="620" width="150" height="80" as="geometry" />
        </mxCell>
        <mxCell id="3-vqO-VOCX3C3YNpRNve-29" style="edgeStyle=orthogonalEdgeStyle;rounded=0;orthogonalLoop=1;jettySize=auto;html=1;entryX=0.432;entryY=1.017;entryDx=0;entryDy=0;entryPerimeter=0;" edge="1" parent="1" source="3-vqO-VOCX3C3YNpRNve-30" target="3-vqO-VOCX3C3YNpRNve-32">
          <mxGeometry relative="1" as="geometry">
            <Array as="points">
              <mxPoint x="1953" y="770" />
              <mxPoint x="1953" y="691" />
            </Array>
          </mxGeometry>
        </mxCell>
        <mxCell id="3-vqO-VOCX3C3YNpRNve-30" value="max = array[index]&lt;br&gt;max_index = index&amp;nbsp;" style="rounded=0;whiteSpace=wrap;html=1;" vertex="1" parent="1">
          <mxGeometry x="2091" y="740" width="120" height="60" as="geometry" />
        </mxCell>
        <mxCell id="3-vqO-VOCX3C3YNpRNve-31" style="edgeStyle=orthogonalEdgeStyle;rounded=0;orthogonalLoop=1;jettySize=auto;html=1;entryX=0;entryY=0.5;entryDx=0;entryDy=0;" edge="1" parent="1" source="3-vqO-VOCX3C3YNpRNve-32" target="3-vqO-VOCX3C3YNpRNve-25">
          <mxGeometry relative="1" as="geometry">
            <Array as="points">
              <mxPoint x="1956" y="520" />
            </Array>
          </mxGeometry>
        </mxCell>
        <mxCell id="3-vqO-VOCX3C3YNpRNve-32" value="index = index + 1" style="whiteSpace=wrap;html=1;" vertex="1" parent="1">
          <mxGeometry x="1893" y="630" width="120" height="60" as="geometry" />
        </mxCell>
        <mxCell id="3-vqO-VOCX3C3YNpRNve-33" value="" style="edgeStyle=orthogonalEdgeStyle;rounded=0;orthogonalLoop=1;jettySize=auto;html=1;" edge="1" parent="1" source="3-vqO-VOCX3C3YNpRNve-34" target="3-vqO-VOCX3C3YNpRNve-39">
          <mxGeometry relative="1" as="geometry" />
        </mxCell>
        <mxCell id="3-vqO-VOCX3C3YNpRNve-34" value="min &amp;gt; array[index]" style="rhombus;whiteSpace=wrap;html=1;" vertex="1" parent="1">
          <mxGeometry x="2306" y="620" width="150" height="80" as="geometry" />
        </mxCell>
        <mxCell id="3-vqO-VOCX3C3YNpRNve-38" style="edgeStyle=orthogonalEdgeStyle;rounded=0;orthogonalLoop=1;jettySize=auto;html=1;exitX=0.5;exitY=1;exitDx=0;exitDy=0;" edge="1" parent="1" source="3-vqO-VOCX3C3YNpRNve-39" target="3-vqO-VOCX3C3YNpRNve-32">
          <mxGeometry relative="1" as="geometry">
            <Array as="points">
              <mxPoint x="2381" y="820" />
              <mxPoint x="1953" y="820" />
            </Array>
          </mxGeometry>
        </mxCell>
        <mxCell id="3-vqO-VOCX3C3YNpRNve-39" value="min = array[index]&lt;br&gt;min_index = index" style="whiteSpace=wrap;html=1;" vertex="1" parent="1">
          <mxGeometry x="2301.5" y="740" width="159" height="60" as="geometry" />
        </mxCell>
        <mxCell id="tlcOm4Z5YWp64ymTtb41-2" value="" style="edgeStyle=orthogonalEdgeStyle;rounded=0;orthogonalLoop=1;jettySize=auto;html=1;" edge="1" parent="1" source="3-vqO-VOCX3C3YNpRNve-41" target="tlcOm4Z5YWp64ymTtb41-1">
          <mxGeometry relative="1" as="geometry" />
        </mxCell>
        <mxCell id="3-vqO-VOCX3C3YNpRNve-41" value="max&lt;br&gt;min&lt;br&gt;max_index&lt;br&gt;min_index&amp;nbsp;" style="whiteSpace=wrap;html=1;" vertex="1" parent="1">
          <mxGeometry x="2510" y="490" width="120" height="60" as="geometry" />
        </mxCell>
        <mxCell id="tlcOm4Z5YWp64ymTtb41-4" value="yes" style="edgeStyle=orthogonalEdgeStyle;rounded=0;orthogonalLoop=1;jettySize=auto;html=1;" edge="1" parent="1" source="tlcOm4Z5YWp64ymTtb41-1" target="tlcOm4Z5YWp64ymTtb41-3">
          <mxGeometry relative="1" as="geometry" />
        </mxCell>
        <mxCell id="tlcOm4Z5YWp64ymTtb41-6" value="no" style="edgeStyle=orthogonalEdgeStyle;rounded=0;orthogonalLoop=1;jettySize=auto;html=1;" edge="1" parent="1" source="tlcOm4Z5YWp64ymTtb41-1" target="tlcOm4Z5YWp64ymTtb41-5">
          <mxGeometry relative="1" as="geometry" />
        </mxCell>
        <mxCell id="tlcOm4Z5YWp64ymTtb41-1" value="max_index &amp;lt; min_index" style="rhombus;whiteSpace=wrap;html=1;" vertex="1" parent="1">
          <mxGeometry x="2700" y="480" width="190" height="80" as="geometry" />
        </mxCell>
        <mxCell id="tlcOm4Z5YWp64ymTtb41-3" value="start = max_index&lt;br&gt;end = min_index" style="whiteSpace=wrap;html=1;" vertex="1" parent="1">
          <mxGeometry x="2735" y="640" width="120" height="60" as="geometry" />
        </mxCell>
        <mxCell id="tlcOm4Z5YWp64ymTtb41-5" value="start = min_index&lt;br&gt;end = max_index" style="whiteSpace=wrap;html=1;" vertex="1" parent="1">
          <mxGeometry x="2940" y="490" width="120" height="60" as="geometry" />
        </mxCell>
      </root>
    </mxGraphModel>
  </diagram>
  <diagram id="jIR-zD-oWIbaUx7P_XsX" name="Страница 10">
    <mxGraphModel dx="1405" dy="761" grid="1" gridSize="10" guides="1" tooltips="1" connect="1" arrows="1" fold="1" page="1" pageScale="1" pageWidth="827" pageHeight="1169" math="0" shadow="0">
      <root>
        <mxCell id="0" />
        <mxCell id="1" parent="0" />
      </root>
    </mxGraphModel>
  </diagram>
</mxfile>
